<svg width="270" height="40" viewBox="0 0 270 40" fill="none" xmlns="http://www.w3.org/2000/svg">
<g clip-path="url(#clip0_2320_194)">
<path d="M19.9999 0C31.0459 0 39.9999 8.954 39.9999 20V34C39.9999 35.5913 39.3678 37.1174 38.2426 38.2426C37.1174 39.3679 35.5912 40 33.9999 40H20.9999V31.226C20.9999 29.224 21.1219 27.15 22.1719 25.446C22.9237 24.2248 23.9292 23.1796 25.1205 22.3813C26.3117 21.5829 27.6607 21.0501 29.0759 20.819L29.4589 20.757C29.6168 20.703 29.7539 20.601 29.8509 20.4653C29.948 20.3296 30.0002 20.1669 30.0002 20C30.0002 19.8331 29.948 19.6704 29.8509 19.5347C29.7539 19.399 29.6168 19.297 29.4589 19.243L29.0759 19.181C27.0081 18.8432 25.0986 17.8644 23.617 16.3829C22.1355 14.9013 21.1567 12.9918 20.8189 10.924L20.7569 10.541C20.703 10.3831 20.601 10.246 20.4652 10.149C20.3295 10.0519 20.1668 9.99975 19.9999 9.99975C19.8331 9.99975 19.6704 10.0519 19.5346 10.149C19.3989 10.246 19.2969 10.3831 19.2429 10.541L19.1809 10.924C18.9499 12.3393 18.4171 13.6883 17.6187 14.8795C16.8204 16.0707 15.7751 17.0763 14.5539 17.828C12.8499 18.878 10.7759 19 8.77393 19H0.0239258C0.546926 8.419 9.28993 0 19.9999 0Z" fill="white"/>
<path d="M0 21H8.774C10.776 21 12.85 21.122 14.554 22.172C15.886 22.9928 17.0072 24.114 17.828 25.446C18.878 27.15 19 29.224 19 31.226V40H6C4.4087 40 2.88258 39.3679 1.75736 38.2426C0.632141 37.1174 0 35.5913 0 34L0 21ZM40 2C40 2.53043 39.7893 3.03914 39.4142 3.41421C39.0391 3.78929 38.5304 4 38 4C37.4696 4 36.9609 3.78929 36.5858 3.41421C36.2107 3.03914 36 2.53043 36 2C36 1.46957 36.2107 0.960859 36.5858 0.585786C36.9609 0.210714 37.4696 0 38 0C38.5304 0 39.0391 0.210714 39.4142 0.585786C39.7893 0.960859 40 1.46957 40 2Z" fill="white"/>
</g>
<path d="M61.016 30.78C59.4107 30.78 58.0107 30.4533 56.816 29.8C55.6213 29.1467 54.688 28.2507 54.016 27.112C53.344 25.9733 53.008 24.6667 53.008 23.192C53.008 22.0533 53.1947 21.008 53.568 20.056C53.9413 19.104 54.464 18.2827 55.136 17.592C55.808 16.8827 56.6013 16.3413 57.516 15.968C58.4493 15.576 59.4573 15.38 60.54 15.38C61.548 15.38 62.4813 15.5667 63.34 15.94C64.1987 16.2947 64.936 16.808 65.552 17.48C66.1867 18.1333 66.672 18.908 67.008 19.804C67.344 20.7 67.4933 21.68 67.456 22.744L67.428 23.976H55.528L54.884 21.54H64.152L63.704 22.044V21.428C63.6667 20.924 63.4987 20.4667 63.2 20.056C62.92 19.6453 62.556 19.328 62.108 19.104C61.66 18.88 61.156 18.768 60.596 18.768C59.7747 18.768 59.0747 18.9267 58.496 19.244C57.936 19.5613 57.5067 20.028 57.208 20.644C56.9093 21.26 56.76 22.0067 56.76 22.884C56.76 23.78 56.9467 24.5547 57.32 25.208C57.712 25.8613 58.2533 26.3747 58.944 26.748C59.6533 27.1027 60.484 27.28 61.436 27.28C62.0893 27.28 62.6867 27.1773 63.228 26.972C63.7693 26.7667 64.348 26.412 64.964 25.908L66.868 28.568C66.3267 29.0533 65.7293 29.464 65.076 29.8C64.4227 30.1173 63.7507 30.36 63.06 30.528C62.3693 30.696 61.688 30.78 61.016 30.78ZM70.3943 36.66V15.688H74.2303L74.3423 19.02L73.6143 18.768C73.7449 18.1707 74.0623 17.62 74.5663 17.116C75.0889 16.612 75.7329 16.2013 76.4983 15.884C77.2636 15.5667 78.0663 15.408 78.9063 15.408C80.1943 15.408 81.3329 15.744 82.3223 16.416C83.3303 17.0693 84.1236 17.9747 84.7023 19.132C85.2996 20.2707 85.5983 21.5867 85.5983 23.08C85.5983 24.5547 85.3089 25.8707 84.7303 27.028C84.1516 28.1853 83.3583 29.1 82.3503 29.772C81.3423 30.4253 80.1943 30.752 78.9063 30.752C78.0476 30.752 77.2263 30.5933 76.4423 30.276C75.6769 29.94 75.0236 29.5013 74.4823 28.96C73.9409 28.4187 73.6049 27.84 73.4743 27.224L74.3983 26.832V36.66H70.3943ZM78.0103 27.336C78.7383 27.336 79.3823 27.1587 79.9423 26.804C80.5023 26.4493 80.9409 25.9547 81.2583 25.32C81.5756 24.6667 81.7343 23.92 81.7343 23.08C81.7343 22.24 81.5756 21.5027 81.2583 20.868C80.9409 20.2333 80.5023 19.7387 79.9423 19.384C79.4009 19.0293 78.7569 18.852 78.0103 18.852C77.2636 18.852 76.6103 19.0293 76.0503 19.384C75.4903 19.72 75.0516 20.2147 74.7343 20.868C74.4169 21.5027 74.2583 22.24 74.2583 23.08C74.2583 23.92 74.4169 24.6667 74.7343 25.32C75.0516 25.9547 75.4903 26.4493 76.0503 26.804C76.6103 27.1587 77.2636 27.336 78.0103 27.336ZM94.1492 30.78C92.9172 30.78 91.8065 30.444 90.8172 29.772C89.8279 29.1 89.0439 28.1853 88.4652 27.028C87.8865 25.8707 87.5972 24.5453 87.5972 23.052C87.5972 21.5587 87.8865 20.2427 88.4652 19.104C89.0625 17.9467 89.8652 17.0413 90.8732 16.388C91.8812 15.716 93.0292 15.38 94.3172 15.38C95.0452 15.38 95.7079 15.492 96.3052 15.716C96.9212 15.9213 97.4532 16.2107 97.9012 16.584C98.3679 16.9573 98.7599 17.3867 99.0772 17.872C99.3945 18.3573 99.6185 18.88 99.7492 19.44L98.9092 19.3V15.688H102.857V30.5H98.8532V26.944L99.7492 26.86C99.5999 27.3827 99.3572 27.8773 99.0212 28.344C98.6852 28.8107 98.2652 29.2307 97.7612 29.604C97.2759 29.9587 96.7252 30.248 96.1092 30.472C95.4932 30.6773 94.8399 30.78 94.1492 30.78ZM95.2412 27.336C95.9879 27.336 96.6412 27.1587 97.2012 26.804C97.7612 26.4493 98.1905 25.9547 98.4892 25.32C98.8065 24.6667 98.9652 23.9107 98.9652 23.052C98.9652 22.212 98.8065 21.4747 98.4892 20.84C98.1905 20.2053 97.7612 19.7107 97.2012 19.356C96.6412 18.9827 95.9879 18.796 95.2412 18.796C94.5132 18.796 93.8692 18.9827 93.3092 19.356C92.7679 19.7107 92.3385 20.2053 92.0212 20.84C91.7039 21.4747 91.5452 22.212 91.5452 23.052C91.5452 23.9107 91.7039 24.6667 92.0212 25.32C92.3385 25.9547 92.7679 26.4493 93.3092 26.804C93.8692 27.1587 94.5132 27.336 95.2412 27.336ZM106.843 30.5V15.688H110.651L110.763 18.712L109.979 19.048C110.185 18.376 110.549 17.7693 111.071 17.228C111.613 16.668 112.257 16.22 113.003 15.884C113.75 15.548 114.534 15.38 115.355 15.38C116.475 15.38 117.409 15.604 118.155 16.052C118.921 16.5 119.49 17.1813 119.863 18.096C120.255 18.992 120.451 20.1027 120.451 21.428V30.5H116.475V21.736C116.475 21.064 116.382 20.504 116.195 20.056C116.009 19.608 115.719 19.2813 115.327 19.076C114.954 18.852 114.487 18.7587 113.927 18.796C113.479 18.796 113.059 18.8707 112.667 19.02C112.294 19.1507 111.967 19.3467 111.687 19.608C111.426 19.8693 111.211 20.168 111.043 20.504C110.894 20.84 110.819 21.204 110.819 21.596V30.5H108.859C108.43 30.5 108.047 30.5 107.711 30.5C107.375 30.5 107.086 30.5 106.843 30.5ZM130.701 30.78C129.283 30.78 128.013 30.444 126.893 29.772C125.773 29.1 124.887 28.1853 124.233 27.028C123.599 25.8707 123.281 24.5547 123.281 23.08C123.281 21.624 123.599 20.3173 124.233 19.16C124.887 17.984 125.773 17.06 126.893 16.388C128.013 15.716 129.283 15.38 130.701 15.38C132.027 15.38 133.24 15.6227 134.341 16.108C135.443 16.5933 136.301 17.2653 136.917 18.124L134.733 20.756C134.472 20.4013 134.145 20.084 133.753 19.804C133.361 19.5053 132.932 19.272 132.465 19.104C132.017 18.936 131.551 18.852 131.065 18.852C130.3 18.852 129.619 19.0387 129.021 19.412C128.443 19.7667 127.985 20.2613 127.649 20.896C127.313 21.5307 127.145 22.2587 127.145 23.08C127.145 23.8827 127.313 24.6013 127.649 25.236C128.004 25.852 128.48 26.356 129.077 26.748C129.675 27.1213 130.347 27.308 131.093 27.308C131.579 27.308 132.036 27.2427 132.465 27.112C132.895 26.9627 133.296 26.748 133.669 26.468C134.061 26.188 134.416 25.852 134.733 25.46L136.889 28.092C136.255 28.8947 135.377 29.548 134.257 30.052C133.137 30.5373 131.952 30.78 130.701 30.78ZM144.981 30.78C143.749 30.78 142.639 30.444 141.649 29.772C140.66 29.1 139.876 28.1853 139.297 27.028C138.719 25.8707 138.429 24.5453 138.429 23.052C138.429 21.5587 138.719 20.2427 139.297 19.104C139.895 17.9467 140.697 17.0413 141.705 16.388C142.713 15.716 143.861 15.38 145.149 15.38C145.877 15.38 146.54 15.492 147.137 15.716C147.753 15.9213 148.285 16.2107 148.733 16.584C149.2 16.9573 149.592 17.3867 149.909 17.872C150.227 18.3573 150.451 18.88 150.581 19.44L149.741 19.3V15.688H153.689V30.5H149.685V26.944L150.581 26.86C150.432 27.3827 150.189 27.8773 149.853 28.344C149.517 28.8107 149.097 29.2307 148.593 29.604C148.108 29.9587 147.557 30.248 146.941 30.472C146.325 30.6773 145.672 30.78 144.981 30.78ZM146.073 27.336C146.82 27.336 147.473 27.1587 148.033 26.804C148.593 26.4493 149.023 25.9547 149.321 25.32C149.639 24.6667 149.797 23.9107 149.797 23.052C149.797 22.212 149.639 21.4747 149.321 20.84C149.023 20.2053 148.593 19.7107 148.033 19.356C147.473 18.9827 146.82 18.796 146.073 18.796C145.345 18.796 144.701 18.9827 144.141 19.356C143.6 19.7107 143.171 20.2053 142.853 20.84C142.536 21.4747 142.377 22.212 142.377 23.052C142.377 23.9107 142.536 24.6667 142.853 25.32C143.171 25.9547 143.6 26.4493 144.141 26.804C144.701 27.1587 145.345 27.336 146.073 27.336ZM162.66 30.78C161.278 30.78 160.046 30.556 158.964 30.108C157.9 29.6413 157.041 29.0067 156.388 28.204L158.852 26.076C159.43 26.692 160.074 27.14 160.784 27.42C161.493 27.6813 162.202 27.812 162.912 27.812C163.192 27.812 163.444 27.784 163.668 27.728C163.91 27.6533 164.116 27.56 164.284 27.448C164.452 27.3173 164.573 27.168 164.648 27C164.741 26.8133 164.788 26.6173 164.788 26.412C164.788 26.0013 164.62 25.6747 164.284 25.432C164.097 25.3387 163.808 25.2267 163.416 25.096C163.024 24.9467 162.52 24.788 161.904 24.62C160.952 24.3773 160.14 24.0973 159.468 23.78C158.814 23.444 158.292 23.0707 157.9 22.66C157.564 22.268 157.302 21.848 157.116 21.4C156.948 20.9333 156.864 20.42 156.864 19.86C156.864 19.188 157.013 18.5813 157.312 18.04C157.61 17.48 158.021 17.004 158.544 16.612C159.085 16.22 159.701 15.9213 160.392 15.716C161.082 15.492 161.81 15.38 162.576 15.38C163.341 15.38 164.088 15.4733 164.816 15.66C165.544 15.8467 166.216 16.1173 166.832 16.472C167.466 16.808 168.017 17.2093 168.484 17.676L166.356 20.028C166.02 19.7107 165.637 19.4213 165.208 19.16C164.797 18.8987 164.368 18.6933 163.919 18.544C163.472 18.3947 163.07 18.32 162.716 18.32C162.398 18.32 162.109 18.348 161.848 18.404C161.605 18.46 161.4 18.544 161.232 18.656C161.064 18.768 160.933 18.9173 160.84 19.104C160.765 19.272 160.728 19.4587 160.728 19.664C160.728 19.8693 160.774 20.0653 160.868 20.252C160.98 20.4387 161.129 20.5973 161.316 20.728C161.521 20.84 161.82 20.9707 162.212 21.12C162.622 21.2693 163.173 21.4373 163.864 21.624C164.76 21.8667 165.516 22.1373 166.132 22.436C166.766 22.7347 167.27 23.08 167.644 23.472C167.961 23.808 168.194 24.1907 168.344 24.62C168.493 25.0493 168.568 25.5253 168.568 26.048C168.568 26.9627 168.306 27.784 167.784 28.512C167.28 29.2213 166.58 29.7813 165.684 30.192C164.788 30.584 163.78 30.78 162.66 30.78ZM171.738 30.5V15.688H175.714V30.5H171.738ZM173.698 12.636C172.933 12.636 172.335 12.4493 171.906 12.076C171.477 11.7027 171.262 11.1707 171.262 10.48C171.262 9.84533 171.477 9.332 171.906 8.94C172.354 8.52933 172.951 8.324 173.698 8.324C174.463 8.324 175.061 8.52 175.49 8.912C175.919 9.28533 176.134 9.808 176.134 10.48C176.134 11.1333 175.91 11.656 175.462 12.048C175.033 12.44 174.445 12.636 173.698 12.636ZM179.989 30.5V9.78H183.965V30.5H179.989ZM193.27 30.78C192.038 30.78 190.928 30.444 189.938 29.772C188.949 29.1 188.165 28.1853 187.586 27.028C187.008 25.8707 186.718 24.5453 186.718 23.052C186.718 21.5587 187.008 20.2427 187.586 19.104C188.184 17.9467 188.986 17.0413 189.994 16.388C191.002 15.716 192.15 15.38 193.438 15.38C194.166 15.38 194.829 15.492 195.426 15.716C196.042 15.9213 196.574 16.2107 197.022 16.584C197.489 16.9573 197.881 17.3867 198.198 17.872C198.516 18.3573 198.74 18.88 198.87 19.44L198.03 19.3V15.688H201.978V30.5H197.974V26.944L198.87 26.86C198.721 27.3827 198.478 27.8773 198.142 28.344C197.806 28.8107 197.386 29.2307 196.882 29.604C196.397 29.9587 195.846 30.248 195.23 30.472C194.614 30.6773 193.961 30.78 193.27 30.78ZM194.362 27.336C195.109 27.336 195.762 27.1587 196.322 26.804C196.882 26.4493 197.312 25.9547 197.61 25.32C197.928 24.6667 198.086 23.9107 198.086 23.052C198.086 22.212 197.928 21.4747 197.61 20.84C197.312 20.2053 196.882 19.7107 196.322 19.356C195.762 18.9827 195.109 18.796 194.362 18.796C193.634 18.796 192.99 18.9827 192.43 19.356C191.889 19.7107 191.46 20.2053 191.142 20.84C190.825 21.4747 190.666 22.212 190.666 23.052C190.666 23.9107 190.825 24.6667 191.142 25.32C191.46 25.9547 191.889 26.4493 192.43 26.804C192.99 27.1587 193.634 27.336 194.362 27.336Z" fill="white"/>
<defs>
<clipPath id="clip0_2320_194">
<rect width="40" height="40" fill="white"/>
</clipPath>
</defs>
</svg>
